<mxfile host="app.diagrams.net" modified="2022-02-28T09:31:48.193Z" agent="5.0 (Windows NT 10.0; Win64; x64) AppleWebKit/537.36 (KHTML, like Gecko) Chrome/97.0.4692.99 Safari/537.36" etag="OxHHptPfYS6YeqFOaVvJ" version="16.6.4" type="github">
  <diagram id="wv3CKyiRIyC83f-S4AsD" name="Page-1">
    <mxGraphModel dx="1182" dy="675" grid="1" gridSize="10" guides="1" tooltips="1" connect="1" arrows="1" fold="1" page="1" pageScale="1" pageWidth="827" pageHeight="1169" math="0" shadow="0">
      <root>
        <mxCell id="0" />
        <mxCell id="1" parent="0" />
        <mxCell id="j_9-Uxjv2BNyTcxjB99k-13" style="edgeStyle=orthogonalEdgeStyle;rounded=0;orthogonalLoop=1;jettySize=auto;html=1;entryX=0;entryY=0.25;entryDx=0;entryDy=0;" edge="1" parent="1" source="BlAbsp78SDBVKc19avHf-15" target="j_9-Uxjv2BNyTcxjB99k-1">
          <mxGeometry relative="1" as="geometry" />
        </mxCell>
        <mxCell id="j_9-Uxjv2BNyTcxjB99k-12" style="edgeStyle=orthogonalEdgeStyle;rounded=0;orthogonalLoop=1;jettySize=auto;html=1;" edge="1" parent="1" source="BlAbsp78SDBVKc19avHf-31" target="BlAbsp78SDBVKc19avHf-45">
          <mxGeometry relative="1" as="geometry">
            <Array as="points">
              <mxPoint x="323" y="720" />
              <mxPoint x="470" y="720" />
              <mxPoint x="470" y="850" />
            </Array>
          </mxGeometry>
        </mxCell>
        <mxCell id="j_9-Uxjv2BNyTcxjB99k-11" style="edgeStyle=orthogonalEdgeStyle;rounded=0;orthogonalLoop=1;jettySize=auto;html=1;entryX=1;entryY=0.75;entryDx=0;entryDy=0;" edge="1" parent="1" source="BlAbsp78SDBVKc19avHf-32" target="BlAbsp78SDBVKc19avHf-22">
          <mxGeometry relative="1" as="geometry">
            <Array as="points">
              <mxPoint x="595" y="700" />
              <mxPoint x="440" y="700" />
              <mxPoint x="440" y="850" />
              <mxPoint x="362" y="850" />
            </Array>
          </mxGeometry>
        </mxCell>
        <mxCell id="BlAbsp78SDBVKc19avHf-25" style="edgeStyle=orthogonalEdgeStyle;rounded=0;orthogonalLoop=1;jettySize=auto;html=1;entryX=0.75;entryY=0;entryDx=0;entryDy=0;" parent="1" source="j_9-Uxjv2BNyTcxjB99k-6" target="BlAbsp78SDBVKc19avHf-34" edge="1">
          <mxGeometry relative="1" as="geometry">
            <mxPoint x="506.85994723236286" y="446.5" as="sourcePoint" />
          </mxGeometry>
        </mxCell>
        <mxCell id="BlAbsp78SDBVKc19avHf-26" style="edgeStyle=orthogonalEdgeStyle;rounded=0;orthogonalLoop=1;jettySize=auto;html=1;entryX=0.453;entryY=0;entryDx=0;entryDy=0;entryPerimeter=0;exitX=0.25;exitY=1;exitDx=0;exitDy=0;" parent="1" source="j_9-Uxjv2BNyTcxjB99k-1" target="BlAbsp78SDBVKc19avHf-33" edge="1">
          <mxGeometry relative="1" as="geometry">
            <mxPoint x="414.00005276763727" y="446.5" as="sourcePoint" />
            <Array as="points">
              <mxPoint x="414" y="394" />
              <mxPoint x="414" y="470" />
              <mxPoint x="311" y="470" />
              <mxPoint x="311" y="585" />
            </Array>
          </mxGeometry>
        </mxCell>
        <mxCell id="BlAbsp78SDBVKc19avHf-43" value="" style="endArrow=classic;html=1;exitX=0.33;exitY=1.008;exitDx=0;exitDy=0;entryX=0.5;entryY=0;entryDx=0;entryDy=0;exitPerimeter=0;" parent="1" source="BlAbsp78SDBVKc19avHf-41" target="j_9-Uxjv2BNyTcxjB99k-1" edge="1">
          <mxGeometry width="50" height="50" relative="1" as="geometry">
            <mxPoint x="253.5" y="152" as="sourcePoint" />
            <mxPoint x="423.08706186856625" y="204.90074741740477" as="targetPoint" />
          </mxGeometry>
        </mxCell>
        <mxCell id="BlAbsp78SDBVKc19avHf-21" value="" style="endArrow=classic;html=1;entryX=0.75;entryY=0;entryDx=0;entryDy=0;exitX=0.5;exitY=1;exitDx=0;exitDy=0;" parent="1" source="j_9-Uxjv2BNyTcxjB99k-1" edge="1">
          <mxGeometry width="50" height="50" relative="1" as="geometry">
            <mxPoint x="515.62" y="260" as="sourcePoint" />
            <mxPoint x="516.8141272390586" y="324.90174552188273" as="targetPoint" />
          </mxGeometry>
        </mxCell>
        <mxCell id="j_9-Uxjv2BNyTcxjB99k-6" value="" style="rounded=1;whiteSpace=wrap;html=1;fillColor=#ffffff;" vertex="1" parent="1">
          <mxGeometry x="425.62" y="270" width="130" height="150" as="geometry" />
        </mxCell>
        <mxCell id="BlAbsp78SDBVKc19avHf-1" style="edgeStyle=orthogonalEdgeStyle;rounded=0;orthogonalLoop=1;jettySize=auto;html=1;entryX=0.75;entryY=1;entryDx=0;entryDy=0;exitX=0.825;exitY=-0.2;exitDx=0;exitDy=0;exitPerimeter=0;" parent="1" source="BlAbsp78SDBVKc19avHf-46" target="BlAbsp78SDBVKc19avHf-32" edge="1">
          <mxGeometry relative="1" as="geometry">
            <Array as="points">
              <mxPoint x="638" y="734" />
              <mxPoint x="638" y="708" />
            </Array>
          </mxGeometry>
        </mxCell>
        <mxCell id="BlAbsp78SDBVKc19avHf-2" value="" style="rounded=1;whiteSpace=wrap;html=1;fillColor=#ffffff;" parent="1" vertex="1">
          <mxGeometry x="523.46" y="490" width="142.54" height="190" as="geometry" />
        </mxCell>
        <mxCell id="BlAbsp78SDBVKc19avHf-4" value="" style="rounded=1;whiteSpace=wrap;html=1;fillColor=#ffffff;" parent="1" vertex="1">
          <mxGeometry x="490" y="730" width="210" height="180" as="geometry" />
        </mxCell>
        <mxCell id="j_9-Uxjv2BNyTcxjB99k-10" style="edgeStyle=orthogonalEdgeStyle;rounded=0;orthogonalLoop=1;jettySize=auto;html=1;entryX=0.118;entryY=1.1;entryDx=0;entryDy=0;entryPerimeter=0;" edge="1" parent="1" source="BlAbsp78SDBVKc19avHf-7" target="BlAbsp78SDBVKc19avHf-33">
          <mxGeometry relative="1" as="geometry">
            <Array as="points">
              <mxPoint x="290" y="668" />
              <mxPoint x="252" y="668" />
            </Array>
          </mxGeometry>
        </mxCell>
        <mxCell id="BlAbsp78SDBVKc19avHf-7" value="" style="rounded=1;whiteSpace=wrap;html=1;fillColor=#ffffff;" parent="1" vertex="1">
          <mxGeometry x="210" y="730" width="210" height="180" as="geometry" />
        </mxCell>
        <mxCell id="BlAbsp78SDBVKc19avHf-10" value="" style="rounded=1;whiteSpace=wrap;html=1;fillColor=#ffffff;" parent="1" vertex="1">
          <mxGeometry x="240" y="490" width="142.54" height="190" as="geometry" />
        </mxCell>
        <mxCell id="BlAbsp78SDBVKc19avHf-11" value="C-Pi: Production Layer" style="text;html=1;strokeColor=none;fillColor=none;align=center;verticalAlign=middle;whiteSpace=wrap;rounded=0;fontSize=33;" parent="1" vertex="1">
          <mxGeometry x="140" y="40" width="560" height="20" as="geometry" />
        </mxCell>
        <mxCell id="BlAbsp78SDBVKc19avHf-12" value="" style="endArrow=classic;html=1;exitX=1;exitY=0.5;exitDx=0;exitDy=0;" parent="1" source="BlAbsp78SDBVKc19avHf-35" edge="1" target="BlAbsp78SDBVKc19avHf-44">
          <mxGeometry width="50" height="50" relative="1" as="geometry">
            <mxPoint x="400" y="380" as="sourcePoint" />
            <mxPoint x="413.08706186856625" y="194.90074741740477" as="targetPoint" />
          </mxGeometry>
        </mxCell>
        <mxCell id="BlAbsp78SDBVKc19avHf-13" value="F5" style="text;html=1;strokeColor=none;fillColor=none;align=center;verticalAlign=middle;whiteSpace=wrap;rounded=0;" parent="1" vertex="1">
          <mxGeometry x="402" y="290" width="170" height="20" as="geometry" />
        </mxCell>
        <mxCell id="BlAbsp78SDBVKc19avHf-14" value="" style="group" parent="1" vertex="1" connectable="0">
          <mxGeometry x="100" y="462" width="121" height="130" as="geometry" />
        </mxCell>
        <mxCell id="BlAbsp78SDBVKc19avHf-15" value="" style="rounded=1;whiteSpace=wrap;html=1;fillColor=#dae8fc;strokeColor=#6c8ebf;" parent="BlAbsp78SDBVKc19avHf-14" vertex="1">
          <mxGeometry x="1" y="-181" width="120" height="130" as="geometry" />
        </mxCell>
        <mxCell id="BlAbsp78SDBVKc19avHf-16" value="" style="aspect=fixed;perimeter=ellipsePerimeter;html=1;align=center;shadow=0;dashed=0;spacingTop=3;image;image=img/lib/active_directory/vista_client.svg;" parent="BlAbsp78SDBVKc19avHf-14" vertex="1">
          <mxGeometry x="27" y="-142" width="38" height="50" as="geometry" />
        </mxCell>
        <mxCell id="BlAbsp78SDBVKc19avHf-17" value="" style="aspect=fixed;perimeter=ellipsePerimeter;html=1;align=center;shadow=0;dashed=0;spacingTop=3;image;image=img/lib/active_directory/vista_client.svg;" parent="BlAbsp78SDBVKc19avHf-14" vertex="1">
          <mxGeometry x="42" y="-127" width="38" height="50" as="geometry" />
        </mxCell>
        <mxCell id="BlAbsp78SDBVKc19avHf-18" value="" style="aspect=fixed;perimeter=ellipsePerimeter;html=1;align=center;shadow=0;dashed=0;spacingTop=3;image;image=img/lib/active_directory/vista_client.svg;" parent="BlAbsp78SDBVKc19avHf-14" vertex="1">
          <mxGeometry x="57" y="-112" width="38" height="50" as="geometry" />
        </mxCell>
        <mxCell id="BlAbsp78SDBVKc19avHf-19" value="" style="aspect=fixed;perimeter=ellipsePerimeter;html=1;align=center;shadow=0;dashed=0;spacingTop=3;image;image=img/lib/active_directory/users.svg;" parent="BlAbsp78SDBVKc19avHf-14" vertex="1">
          <mxGeometry x="9" y="-99" width="33" height="50" as="geometry" />
        </mxCell>
        <mxCell id="BlAbsp78SDBVKc19avHf-20" value="Users from workstation via Chrome" style="text;html=1;strokeColor=none;fillColor=none;align=center;verticalAlign=middle;whiteSpace=wrap;rounded=0;" parent="BlAbsp78SDBVKc19avHf-14" vertex="1">
          <mxGeometry y="-167" width="120" height="20" as="geometry" />
        </mxCell>
        <mxCell id="BlAbsp78SDBVKc19avHf-22" value="" style="aspect=fixed;perimeter=ellipsePerimeter;html=1;align=center;shadow=0;dashed=0;spacingTop=3;image;image=img/lib/active_directory/databases.svg;" parent="1" vertex="1">
          <mxGeometry x="274.54" y="758" width="91.84" height="90" as="geometry" />
        </mxCell>
        <mxCell id="BlAbsp78SDBVKc19avHf-23" value="Application &amp;amp; Catalig Data Server&lt;br&gt;SQLBIPOEMSPROD\INSTANCE01" style="text;html=1;strokeColor=none;fillColor=none;align=center;verticalAlign=middle;whiteSpace=wrap;rounded=0;" parent="1" vertex="1">
          <mxGeometry x="228.54000000000002" y="738" width="170" height="20" as="geometry" />
        </mxCell>
        <mxCell id="BlAbsp78SDBVKc19avHf-24" value="DB:&lt;br&gt;DWH_POEMS&lt;br&gt;POEMS_CATALOG" style="text;html=1;strokeColor=none;fillColor=none;align=center;verticalAlign=middle;whiteSpace=wrap;rounded=0;" parent="1" vertex="1">
          <mxGeometry x="235.45999999999998" y="853.86" width="170" height="20" as="geometry" />
        </mxCell>
        <mxCell id="BlAbsp78SDBVKc19avHf-29" value="" style="aspect=fixed;perimeter=ellipsePerimeter;html=1;align=center;shadow=0;dashed=0;spacingTop=3;image;image=img/lib/active_directory/generic_server.svg;" parent="1" vertex="1">
          <mxGeometry x="287" y="522.93" width="60" height="107.14" as="geometry" />
        </mxCell>
        <mxCell id="BlAbsp78SDBVKc19avHf-30" value="" style="aspect=fixed;perimeter=ellipsePerimeter;html=1;align=center;shadow=0;dashed=0;spacingTop=3;image;image=img/lib/active_directory/generic_server.svg;" parent="1" vertex="1">
          <mxGeometry x="565" y="528.2499999999999" width="60" height="107.14" as="geometry" />
        </mxCell>
        <mxCell id="BlAbsp78SDBVKc19avHf-31" value="SITE:POEMS:8080&lt;br&gt;app:POEMS&lt;br&gt;app: WEB_API" style="text;html=1;strokeColor=none;fillColor=none;align=center;verticalAlign=middle;whiteSpace=wrap;rounded=0;" parent="1" vertex="1">
          <mxGeometry x="231.53999999999996" y="637.25" width="170" height="20" as="geometry" />
        </mxCell>
        <mxCell id="BlAbsp78SDBVKc19avHf-32" value="SITE:POEMS:8080&lt;br&gt;app:POEMS&lt;br&gt;app: WEB_API" style="text;html=1;align=center;verticalAlign=middle;whiteSpace=wrap;rounded=0;" parent="1" vertex="1">
          <mxGeometry x="509.73" y="649.9999999999998" width="170" height="20" as="geometry" />
        </mxCell>
        <mxCell id="BlAbsp78SDBVKc19avHf-33" value="APP Server - IIS&lt;br&gt;&lt;span style=&quot;font-size: 11.0pt ; line-height: 107% ; font-family: &amp;#34;calibri&amp;#34; , sans-serif&quot;&gt;APPBIPOEMSPROD01&lt;/span&gt;" style="text;html=1;strokeColor=none;fillColor=none;align=center;verticalAlign=middle;whiteSpace=wrap;rounded=0;" parent="1" vertex="1">
          <mxGeometry x="226.27" y="502" width="170" height="20" as="geometry" />
        </mxCell>
        <mxCell id="BlAbsp78SDBVKc19avHf-34" value="APP Server - IIS&lt;br&gt;&lt;span style=&quot;font-size: 11.0pt ; line-height: 107% ; font-family: &amp;#34;calibri&amp;#34; , sans-serif&quot;&gt;APPBIPOEMSPROD02&lt;/span&gt;" style="text;html=1;strokeColor=none;fillColor=none;align=center;verticalAlign=middle;whiteSpace=wrap;rounded=0;" parent="1" vertex="1">
          <mxGeometry x="507.54" y="502.93" width="170" height="20" as="geometry" />
        </mxCell>
        <mxCell id="BlAbsp78SDBVKc19avHf-35" value="" style="rounded=1;whiteSpace=wrap;html=1;fillColor=#dae8fc;strokeColor=#6c8ebf;" parent="1" vertex="1">
          <mxGeometry x="112.00000000000001" y="92" width="120" height="130" as="geometry" />
        </mxCell>
        <mxCell id="BlAbsp78SDBVKc19avHf-36" value="" style="aspect=fixed;perimeter=ellipsePerimeter;html=1;align=center;shadow=0;dashed=0;spacingTop=3;image;image=img/lib/active_directory/vista_client.svg;" parent="1" vertex="1">
          <mxGeometry x="138" y="129" width="38" height="50" as="geometry" />
        </mxCell>
        <mxCell id="BlAbsp78SDBVKc19avHf-37" value="" style="aspect=fixed;perimeter=ellipsePerimeter;html=1;align=center;shadow=0;dashed=0;spacingTop=3;image;image=img/lib/active_directory/vista_client.svg;" parent="1" vertex="1">
          <mxGeometry x="153" y="144" width="38" height="50" as="geometry" />
        </mxCell>
        <mxCell id="BlAbsp78SDBVKc19avHf-38" value="" style="aspect=fixed;perimeter=ellipsePerimeter;html=1;align=center;shadow=0;dashed=0;spacingTop=3;image;image=img/lib/active_directory/vista_client.svg;" parent="1" vertex="1">
          <mxGeometry x="168" y="159" width="38" height="50" as="geometry" />
        </mxCell>
        <mxCell id="BlAbsp78SDBVKc19avHf-39" value="" style="aspect=fixed;perimeter=ellipsePerimeter;html=1;align=center;shadow=0;dashed=0;spacingTop=3;image;image=img/lib/active_directory/users.svg;" parent="1" vertex="1">
          <mxGeometry x="120.00000000000001" y="172" width="33" height="50" as="geometry" />
        </mxCell>
        <mxCell id="BlAbsp78SDBVKc19avHf-40" value="Users from Citrix Desktop Stations" style="text;html=1;strokeColor=none;fillColor=none;align=center;verticalAlign=middle;whiteSpace=wrap;rounded=0;" parent="1" vertex="1">
          <mxGeometry x="111.00000000000001" y="104" width="120" height="20" as="geometry" />
        </mxCell>
        <mxCell id="BlAbsp78SDBVKc19avHf-41" value="" style="rounded=1;whiteSpace=wrap;html=1;fillColor=#ffffff;" parent="1" vertex="1">
          <mxGeometry x="440" y="80" width="142.54" height="125" as="geometry" />
        </mxCell>
        <mxCell id="BlAbsp78SDBVKc19avHf-42" value="Clicks NET in Citrix Desktop" style="text;html=1;strokeColor=none;fillColor=none;align=center;verticalAlign=middle;whiteSpace=wrap;rounded=0;" parent="1" vertex="1">
          <mxGeometry x="450" y="100" width="110" height="20" as="geometry" />
        </mxCell>
        <mxCell id="BlAbsp78SDBVKc19avHf-44" value="" style="aspect=fixed;perimeter=ellipsePerimeter;html=1;align=center;shadow=0;dashed=0;spacingTop=3;image;image=img/lib/active_directory/wiki_site.svg;" parent="1" vertex="1">
          <mxGeometry x="481.4299999999999" y="125.57" width="62.86" height="62.86" as="geometry" />
        </mxCell>
        <mxCell id="BlAbsp78SDBVKc19avHf-45" value="" style="aspect=fixed;perimeter=ellipsePerimeter;html=1;align=center;shadow=0;dashed=0;spacingTop=3;image;image=img/lib/active_directory/cluster_server.svg;" parent="1" vertex="1">
          <mxGeometry x="540" y="797.46" width="105.08" height="105.08" as="geometry" />
        </mxCell>
        <mxCell id="BlAbsp78SDBVKc19avHf-46" value="Caching Cluster - Redis&lt;br&gt;slpmkbi-app06" style="text;html=1;strokeColor=none;fillColor=none;align=center;verticalAlign=middle;whiteSpace=wrap;rounded=0;" parent="1" vertex="1">
          <mxGeometry x="510.73" y="738" width="170" height="20" as="geometry" />
        </mxCell>
        <mxCell id="j_9-Uxjv2BNyTcxjB99k-1" value="" style="aspect=fixed;perimeter=ellipsePerimeter;html=1;align=center;shadow=0;dashed=0;spacingTop=3;image;image=img/lib/active_directory/router.svg;" vertex="1" parent="1">
          <mxGeometry x="441.08" y="325.97" width="94.8" height="72.05" as="geometry" />
        </mxCell>
      </root>
    </mxGraphModel>
  </diagram>
</mxfile>
